<?xml version="1.0" encoding="UTF-8"?>
<!DOCTYPE svg PUBLIC "-//W3C//DTD SVG 1.1//EN" "http://www.w3.org/Graphics/SVG/1.1/DTD/svg11.dtd">
<!-- Creator: CorelDRAW X7 -->
<svg xmlns="http://www.w3.org/2000/svg" xml:space="preserve" width="583px" height="180px" version="1.1" style="shape-rendering:geometricPrecision; text-rendering:geometricPrecision; image-rendering:optimizeQuality; fill-rule:evenodd; clip-rule:evenodd"
viewBox="0 0 583 180"
 xmlns:xlink="http://www.w3.org/1999/xlink">
 <defs>
  <style type="text/css">
   <![CDATA[
    .fil0 {fill:#326496}
   ]]>
  </style>
 </defs>
 <g id="Layer_x0020_1">
  <metadata id="CorelCorpID_0Corel-Layer"/>
  <path class="fil0" d="M583 60l-30 0c-10,0 -18,8 -18,18l0 42 12 0 0 -24 24 0 0 -12 -24 0 0 -6c0,-3 2,-6 6,-6l30 0 0 -12zm-493 0c43,0 78,8 78,18 0,3 -4,6 -10,9 -9,-3 -22,-6 -38,-8 0,4 0,7 0,11 0,2 0,3 0,5 -6,0 -12,1 -18,1 0,-2 0,-4 0,-6 0,-4 0,-8 0,-12 -4,0 -8,0 -12,0 -2,0 -4,0 -6,0 0,-6 1,-12 1,-18 2,0 3,0 5,0zm90 18l0 24c0,11 -26,20 -62,23 -3,25 -9,43 -16,43 -3,0 -6,-4 -9,-10 3,-8 5,-19 7,-32 -3,0 -7,0 -10,0 -3,0 -7,0 -10,0 4,32 12,54 22,54l-24 0c-10,0 -19,-23 -22,-56 -33,-3 -56,-12 -56,-22l0 -24c0,13 40,24 90,24 50,0 90,-11 90,-24zm-78 -78l-24 0c-11,0 -20,26 -23,62 -25,3 -43,9 -43,16 0,3 4,6 10,9 8,-3 19,-5 32,-7 0,3 0,7 0,10 0,1 0,3 0,4 7,1 16,1 24,2 0,-2 0,-4 0,-6 0,-50 11,-90 24,-90zm16 55c-3,-25 -9,-43 -16,-43 -3,0 -6,4 -9,10 3,8 5,19 7,32 6,0 12,1 18,1zm141 5l0 12 -18 0 0 48 -12 0 0 -48 -18 0 0 -12 48 0zm87 0c-16,0 -30,13 -30,30 0,17 14,30 30,30l21 0 0 -12 -21 0c-10,0 -18,-8 -18,-18 0,-10 8,-18 18,-18l21 0 0 -12 -21 0zm81 0l30 0c10,0 18,8 18,18 0,10 -8,18 -18,18l-4 0 22 24 -17 0 -31 -36 30 0c3,0 6,-3 6,-6 0,-3 -3,-6 -6,-6l-30 0 0 -12zm72 0l12 0 18 60 -13 0 -11 -38 -12 38 -12 0 18 -60zm-99 0c-16,0 -30,13 -30,30 0,17 14,30 30,30l21 0 0 -36 -12 0 0 24 -9 0c-10,0 -18,-8 -18,-18 0,-10 8,-18 18,-18l21 0 0 -12 -21 0zm-87 0l-30 0c-10,0 -18,8 -18,18l0 24c0,10 8,18 18,18l30 0 0 -12 -30 0c-4,0 -6,-3 -6,-6l0 -6 24 0 0 -12 -24 0 0 -6c0,-3 2,-6 6,-6l30 0 0 -12zm-63 97c3,0 6,-2 6,-6 0,-3 -3,-5 -6,-5l-15 0 0 11 15 0zm0 -17c7,0 12,5 12,11 0,7 -5,12 -12,12l-15 0 0 17 -6 0 0 -40 21 0zm32 34c-3,0 -5,-2 -5,-5l0 -29 -6 0 0 29c0,6 5,11 11,11l9 0c7,0 12,-5 12,-11l0 -29 -6 0 0 29c0,3 -3,5 -6,5l-9 0zm50 6c-11,0 -20,-9 -20,-20 0,-11 9,-20 20,-20l13 0 0 6 -13 0c-8,0 -14,6 -14,14 0,8 6,14 14,14l13 0 0 6 -13 0zm84 -23c3,0 6,-2 6,-6 0,-3 -3,-5 -6,-5l-15 0 0 11 15 0zm11 23l-7 -18c5,-1 8,-6 8,-11 0,-6 -6,-11 -12,-11l-21 0 0 40 6 0 0 -17 13 0 6 17 7 0zm-74 -23l32 0 0 6 -32 0 0 -6zm84 -17l6 0 0 40 -6 0 0 -40zm36 0c11,0 20,9 20,20 0,11 -9,20 -20,20 -11,0 -20,-9 -20,-20 0,-11 9,-20 20,-20zm0 6c8,0 14,6 14,14 0,8 -6,14 -14,14 -8,0 -14,-6 -14,-14 0,-8 6,-14 14,-14z"/>
 </g>
</svg>
